<svg width="113" height="37" viewBox="0 0 113 37" fill="none" xmlns="http://www.w3.org/2000/svg">
<path d="M15.288 26.312H0.648C0.408 26.312 0.24 26.168 0.24 25.88C0.24 25.664 0.336 25.376 0.552 25.016C0.936 24.368 1.488 23.408 1.776 21.2V5.912C1.488 3.704 0.936 2.744 0.552 2.072C0.336 1.712 0.24 1.424 0.24 1.232C0.24 0.943999 0.408 0.8 0.648 0.8H15.288C19.104 0.8 21.048 3.536 21.048 6.56C21.048 9.176 19.608 12.032 16.68 13.544C19.512 15.008 21.216 18.176 21.216 20.96C21.216 23.816 19.44 26.312 15.288 26.312ZM11.064 24.488C12.96 24.488 13.92 21.992 13.92 19.472C13.92 16.976 12.96 14.48 11.064 14.48H9.096V24.488H11.064ZM11.064 12.632C12.96 12.632 13.872 10.184 13.872 7.712C13.872 5.168 12.912 2.624 11.064 2.624H9.096V12.632H11.064ZM31.6453 26.504H22.0693C21.8293 26.504 21.6853 26.36 21.6853 26.096C21.6853 25.88 21.7813 25.592 21.9973 25.232C22.3813 24.584 22.9333 23.624 23.2213 21.464V15.656C23.2213 13.928 22.5733 13.184 22.1173 12.728C21.8293 12.44 21.7093 12.128 21.7093 11.84C21.7093 10.76 23.2693 9.8 24.1813 9.8C26.1973 9.8 28.9333 7.712 30.3013 7.712C30.8293 7.712 31.0933 8.072 31.0933 8.624C31.0933 9.32 30.7093 10.232 30.5173 10.808C31.6693 10.448 33.4213 6.056 34.0213 4.664C34.9333 2.48 35.7733 1.04 40.2133 1.016C42.7813 1.016 43.9813 3.128 43.9813 5.096C43.9813 6.776 43.0933 8.36 41.4133 8.36C40.6933 8.336 40.2133 8.312 39.5653 8.312C37.5013 8.312 36.1813 8.672 34.4053 10.064C31.9333 12.008 30.5413 15.824 30.5413 19.808H30.5173V21.464C30.7813 23.624 31.3573 24.584 31.7413 25.232C31.9573 25.592 32.0533 25.88 32.0533 26.072C32.0533 26.36 31.8853 26.504 31.6453 26.504ZM43.5733 26.504H33.9973C33.7573 26.504 33.5893 26.36 33.5893 26.072C33.5893 25.88 33.6853 25.592 33.9013 25.232C34.3093 24.584 34.8613 23.624 35.1493 21.464V17.6C35.1493 15.896 34.5013 15.128 34.0453 14.672C33.7573 14.384 33.6373 14.072 33.6373 13.784C33.6373 12.704 35.1973 11.768 36.1093 11.768C38.1253 11.768 40.8373 9.68 42.2053 9.68C42.7333 9.68 43.0213 10.016 43.0213 10.568C43.0213 11.264 42.6373 12.176 42.4453 12.752L42.4693 19.808H42.4453V21.464C42.7093 23.624 43.2853 24.584 43.6693 25.232C43.8853 25.592 43.9813 25.88 43.9813 26.072C43.9813 26.36 43.8133 26.504 43.5733 26.504ZM58.5546 26.504H44.8266C44.6826 26.504 44.5866 26.456 44.5866 26.336C44.5866 26.144 44.8506 25.76 45.5226 25.232C46.3146 24.584 47.5146 23.648 49.1226 21.488L55.5306 11.312H53.4666C52.3386 11.312 52.1226 13.112 51.9546 14.72C51.7626 16.328 50.0586 17.072 48.3306 17.072C46.4106 17.072 44.4666 16.16 44.4666 14.576C44.4666 14.384 44.4906 14.192 44.5386 14C45.3306 10.976 48.3546 9.488 52.6746 9.488H65.3946L65.8986 9.512L66.4026 9.488C66.5706 9.488 66.6426 9.536 66.6426 9.656C66.6426 9.848 66.3786 10.232 65.7306 10.76C64.9626 11.384 63.8346 12.344 62.2506 14.408L55.7226 24.68H57.7626C58.9146 24.68 59.1306 22.88 59.2986 21.272C59.4906 19.664 61.1946 18.92 62.9226 18.92C64.8426 18.92 66.7866 19.832 66.7866 21.416C66.7866 21.608 66.7626 21.8 66.7146 21.992C65.9226 25.016 62.8986 26.504 58.5546 26.504ZM81.3593 26.504H67.6313C67.4873 26.504 67.3913 26.456 67.3913 26.336C67.3913 26.144 67.6553 25.76 68.3273 25.232C69.1193 24.584 70.3193 23.648 71.9273 21.488L78.3353 11.312H76.2713C75.1433 11.312 74.9273 13.112 74.7593 14.72C74.5673 16.328 72.8633 17.072 71.1353 17.072C69.2153 17.072 67.2713 16.16 67.2713 14.576C67.2713 14.384 67.2953 14.192 67.3433 14C68.1353 10.976 71.1593 9.488 75.4793 9.488H88.1993L88.7033 9.512L89.2073 9.488C89.3753 9.488 89.4473 9.536 89.4473 9.656C89.4473 9.848 89.1833 10.232 88.5353 10.76C87.7673 11.384 86.6393 12.344 85.0553 14.408L78.5273 24.68H80.5673C81.7193 24.68 81.9353 22.88 82.1033 21.272C82.2953 19.664 83.9993 18.92 85.7273 18.92C87.6473 18.92 89.5913 19.832 89.5913 21.416C89.5913 21.608 89.5673 21.8 89.5193 21.992C88.7273 25.016 85.7033 26.504 81.3593 26.504ZM102.113 36.296C97.7927 36.296 92.9687 34.664 92.1767 31.304C92.1287 31.088 92.1047 30.872 92.1047 30.656C92.1047 28.976 93.7607 28.184 95.5127 28.184C97.2887 28.184 99.1127 29.096 99.3047 30.992C99.4967 32.768 100.985 34.472 102.113 34.472C103.289 34.472 103.481 32.48 103.481 30.248V26.12C102.665 26.36 101.753 26.504 100.769 26.504C94.9847 26.408 92.1047 22.112 92.1047 17.864L92.0807 14.528C91.8167 12.368 91.2407 11.408 90.8567 10.76C90.6407 10.4 90.5447 10.112 90.5447 9.92C90.5447 9.632 90.7127 9.488 90.9527 9.488H100.553C100.793 9.488 100.961 9.632 100.961 9.92C100.961 10.112 100.865 10.4 100.649 10.76C100.241 11.408 99.6887 12.368 99.4007 14.528V18.008C99.4007 21.344 100.289 24.704 102.065 24.704C103.145 24.704 103.409 23.336 103.457 21.416L103.481 14.528C103.193 12.368 102.641 11.408 102.233 10.76C102.017 10.4 101.921 10.112 101.921 9.92C101.921 9.632 102.089 9.488 102.329 9.488H111.929C112.169 9.488 112.337 9.632 112.337 9.92C112.337 10.112 112.241 10.4 112.025 10.76C111.641 11.408 111.065 12.368 110.801 14.528V27.128C110.657 31.712 107.777 36.2 102.113 36.296Z" fill="black"/>
</svg>
